<svg width="201" height="101" viewBox="0 0 201 101" fill="none" xmlns="http://www.w3.org/2000/svg">
<path d="M5.00001 44H49V47H5.00001V44Z" fill="#768CDB"/>
<path d="M65 98H109V101H65V98Z" fill="#82D124"/>
<path d="M90.2896 89H84.04L83.389 76.8046C83.1865 73.159 83.0852 70.0631 83.0852 67.517C83.0852 66.1571 83.0997 65.1734 83.1286 64.5658L78.0508 85.7884H72.0182L66.5932 64.5224C66.7089 66.2873 66.7668 68.2693 66.7668 70.4682C66.7668 72.8118 66.7089 74.9673 66.5932 76.9348L65.9422 89H59.736L62.0796 58.9672H70.1954L75.143 79.669L79.7868 58.9672H87.9894L90.2896 89Z" fill="#091028"/>
<path d="M104.75 65.3036C108.193 65.3036 110.883 66.3886 112.822 68.5586C114.761 70.6997 115.73 73.6798 115.73 77.499C115.73 79.9294 115.281 82.0705 114.384 83.9222C113.516 85.745 112.243 87.1627 110.565 88.1754C108.916 89.1881 106.963 89.6944 104.706 89.6944C101.263 89.6944 98.5579 88.6239 96.5904 86.4828C94.6519 84.3128 93.6826 81.3182 93.6826 77.499C93.6826 75.0686 94.1166 72.942 94.9846 71.1192C95.8815 69.2675 97.1546 67.8353 98.8038 66.8226C100.482 65.8099 102.464 65.3036 104.75 65.3036ZM104.75 69.904C103.187 69.904 102.015 70.5261 101.234 71.7702C100.482 72.9854 100.106 74.895 100.106 77.499C100.106 80.103 100.482 82.0271 101.234 83.2712C102.015 84.4864 103.173 85.094 104.706 85.094C106.24 85.094 107.383 84.4864 108.135 83.2712C108.916 82.0271 109.307 80.103 109.307 77.499C109.307 74.895 108.93 72.9854 108.178 71.7702C107.426 70.5261 106.283 69.904 104.75 69.904Z" fill="#091028"/>
<path d="M132.308 65.347C133.002 65.347 133.769 65.4627 134.608 65.6942L133.567 71.64C132.756 71.4375 132.076 71.3362 131.527 71.3362C130.167 71.3362 129.111 71.8136 128.359 72.7684C127.606 73.7232 127.013 75.1699 126.579 77.1084V89H120.416V65.998H125.755L126.319 70.4682C126.868 68.8479 127.664 67.5893 128.706 66.6924C129.776 65.7955 130.977 65.347 132.308 65.347Z" fill="#091028"/>
<path d="M153.717 82.6202C153.717 83.5171 153.848 84.1826 154.108 84.6166C154.368 85.0217 154.802 85.3255 155.41 85.528L154.108 89.6076C152.748 89.4919 151.634 89.1736 150.766 88.6528C149.927 88.132 149.276 87.3219 148.813 86.2224C147.309 88.5371 145.008 89.6944 141.913 89.6944C139.627 89.6944 137.804 89.0434 136.444 87.7414C135.113 86.4105 134.448 84.6889 134.448 82.5768C134.448 80.0596 135.359 78.1355 137.182 76.8046C139.005 75.4737 141.623 74.8082 145.037 74.8082H147.685V73.6798C147.685 72.2621 147.367 71.2783 146.73 70.7286C146.093 70.1789 145.037 69.904 143.562 69.904C141.941 69.904 139.916 70.3091 137.486 71.1192L136.097 66.9962C138.961 65.8678 141.797 65.3036 144.603 65.3036C147.728 65.3036 150.028 65.9835 151.504 67.3434C152.98 68.6743 153.717 70.6707 153.717 73.3326V82.6202ZM143.605 85.2676C145.341 85.2676 146.701 84.4141 147.685 82.707V78.3236H145.645C142.318 78.3236 140.654 79.5677 140.654 82.056C140.654 83.0687 140.9 83.8643 141.392 84.443C141.913 84.9927 142.65 85.2676 143.605 85.2676Z" fill="#091028"/>
<path d="M179.318 76.9782C179.318 77.2675 179.275 78.0632 179.188 79.3652H164.822C165.025 81.4484 165.589 82.924 166.515 83.792C167.441 84.66 168.699 85.094 170.291 85.094C171.274 85.094 172.2 84.9349 173.068 84.6166C173.936 84.2983 174.877 83.792 175.889 83.0976L178.45 86.5696C175.875 88.6528 172.967 89.6944 169.727 89.6944C166.11 89.6944 163.332 88.6094 161.394 86.4394C159.455 84.2694 158.486 81.3327 158.486 77.6292C158.486 75.2856 158.891 73.1879 159.701 71.3362C160.54 69.4555 161.741 67.9799 163.303 66.9094C164.895 65.8389 166.775 65.3036 168.945 65.3036C172.215 65.3036 174.761 66.3307 176.584 68.385C178.407 70.4393 179.318 73.3037 179.318 76.9782ZM173.199 75.2422C173.199 71.423 171.824 69.5134 169.076 69.5134C167.802 69.5134 166.804 69.9908 166.081 70.9456C165.387 71.8715 164.967 73.3905 164.822 75.5026H173.199V75.2422Z" fill="#091028"/>
<path d="M191.417 65.3036C194.658 65.3036 197.435 66.2295 199.75 68.0812L197.406 71.5966C195.468 70.3814 193.558 69.7738 191.677 69.7738C190.665 69.7738 189.884 69.9619 189.334 70.338C188.784 70.7141 188.509 71.2205 188.509 71.857C188.509 72.3199 188.625 72.7105 188.856 73.0288C189.117 73.3471 189.58 73.6509 190.245 73.9402C190.94 74.2295 191.967 74.5767 193.327 74.9818C195.757 75.6473 197.565 76.5442 198.752 77.6726C199.938 78.7721 200.531 80.2911 200.531 82.2296C200.531 83.7631 200.083 85.094 199.186 86.2224C198.318 87.3508 197.131 88.2188 195.627 88.8264C194.122 89.4051 192.444 89.6944 190.592 89.6944C188.654 89.6944 186.889 89.4051 185.298 88.8264C183.706 88.2188 182.346 87.3942 181.218 86.3526L184.256 82.9674C186.195 84.4719 188.249 85.2242 190.419 85.2242C191.576 85.2242 192.488 85.0072 193.153 84.5732C193.847 84.1103 194.195 83.4882 194.195 82.707C194.195 82.0994 194.064 81.622 193.804 81.2748C193.544 80.9276 193.066 80.6093 192.372 80.32C191.677 80.0017 190.592 79.6401 189.117 79.235C186.802 78.5985 185.081 77.7015 183.952 76.5442C182.853 75.3579 182.303 73.8968 182.303 72.1608C182.303 70.8588 182.679 69.687 183.431 68.6454C184.184 67.6038 185.24 66.7937 186.6 66.215C187.988 65.6074 189.594 65.3036 191.417 65.3036Z" fill="#091028"/>
<path d="M19.35 37L17.73 30.295H8.64001L7.06501 37H-0.584991L8.82001 5.81501H17.775L27.18 37H19.35ZM9.90001 24.94H16.47L13.185 11.17L9.90001 24.94Z" fill="#091028"/>
<path d="M43.328 12.34C45.398 12.34 47.018 12.97 48.188 14.23C49.358 15.49 49.943 17.26 49.943 19.54V37H42.833V20.755C42.833 19.555 42.638 18.73 42.248 18.28C41.888 17.8 41.333 17.56 40.583 17.56C39.143 17.56 37.763 18.595 36.443 20.665V37H29.333V13.105H35.543L36.038 15.94C37.058 14.74 38.153 13.84 39.323 13.24C40.523 12.64 41.858 12.34 43.328 12.34Z" fill="#091028"/>
<path d="M70.2897 35.875C69.4197 36.475 68.3997 36.94 67.2297 37.27C66.0897 37.6 64.9497 37.765 63.8097 37.765C58.5897 37.735 55.9797 34.855 55.9797 29.125V18.055H52.6047V13.105H55.9797V7.93001L63.0897 7.12001V13.105H68.5797L67.8147 18.055H63.0897V29.035C63.0897 30.145 63.2697 30.94 63.6297 31.42C63.9897 31.9 64.5597 32.14 65.3397 32.14C66.1497 32.14 67.0047 31.885 67.9047 31.375L70.2897 35.875Z" fill="#091028"/>
<path d="M82.222 12.34C85.882 12.34 88.747 13.465 90.817 15.715C92.887 17.935 93.922 21.055 93.922 25.075C93.922 27.625 93.442 29.86 92.482 31.78C91.552 33.67 90.202 35.14 88.432 36.19C86.692 37.24 84.622 37.765 82.222 37.765C78.592 37.765 75.727 36.655 73.627 34.435C71.557 32.185 70.522 29.05 70.522 25.03C70.522 22.48 70.987 20.26 71.917 18.37C72.877 16.45 74.227 14.965 75.967 13.915C77.737 12.865 79.822 12.34 82.222 12.34ZM82.222 17.56C80.782 17.56 79.702 18.175 78.982 19.405C78.262 20.605 77.902 22.48 77.902 25.03C77.902 27.64 78.247 29.545 78.937 30.745C79.657 31.945 80.752 32.545 82.222 32.545C83.662 32.545 84.742 31.945 85.462 30.745C86.182 29.515 86.542 27.625 86.542 25.075C86.542 22.465 86.182 20.56 85.462 19.36C84.772 18.16 83.692 17.56 82.222 17.56Z" fill="#091028"/>
<path d="M112.146 12.34C114.216 12.34 115.836 12.97 117.006 14.23C118.176 15.49 118.761 17.26 118.761 19.54V37H111.651V20.755C111.651 19.555 111.456 18.73 111.066 18.28C110.706 17.8 110.151 17.56 109.401 17.56C107.961 17.56 106.581 18.595 105.261 20.665V37H98.1513V13.105H104.361L104.856 15.94C105.876 14.74 106.971 13.84 108.141 13.24C109.341 12.64 110.676 12.34 112.146 12.34Z" fill="#091028"/>
<path d="M131.233 13.105V37H124.123V13.105H131.233ZM127.633 0.505005C128.863 0.505005 129.868 0.895005 130.648 1.67501C131.458 2.42501 131.863 3.38501 131.863 4.55501C131.863 5.72501 131.458 6.70001 130.648 7.48001C129.868 8.23001 128.863 8.60501 127.633 8.60501C126.403 8.60501 125.398 8.23001 124.618 7.48001C123.838 6.70001 123.448 5.72501 123.448 4.55501C123.448 3.38501 123.838 2.42501 124.618 1.67501C125.398 0.895005 126.403 0.505005 127.633 0.505005Z" fill="#091028"/>
<path d="M147.173 12.34C150.833 12.34 153.698 13.465 155.768 15.715C157.838 17.935 158.873 21.055 158.873 25.075C158.873 27.625 158.393 29.86 157.433 31.78C156.503 33.67 155.153 35.14 153.383 36.19C151.643 37.24 149.573 37.765 147.173 37.765C143.543 37.765 140.678 36.655 138.578 34.435C136.508 32.185 135.473 29.05 135.473 25.03C135.473 22.48 135.938 20.26 136.868 18.37C137.828 16.45 139.178 14.965 140.918 13.915C142.688 12.865 144.773 12.34 147.173 12.34ZM147.173 17.56C145.733 17.56 144.653 18.175 143.933 19.405C143.213 20.605 142.853 22.48 142.853 25.03C142.853 27.64 143.198 29.545 143.888 30.745C144.608 31.945 145.703 32.545 147.173 32.545C148.613 32.545 149.693 31.945 150.413 30.745C151.133 29.515 151.493 27.625 151.493 25.075C151.493 22.465 151.133 20.56 150.413 19.36C149.723 18.16 148.643 17.56 147.173 17.56Z" fill="#091028"/>
</svg>
